<svg width="400" height="500" xmlns="http://www.w3.org/2000/svg">
  <!-- Background -->
  <rect width="400" height="500" fill="#1a1a1a"/>
  
  <!-- Chest cavity outline -->
  <ellipse cx="200" cy="280" rx="150" ry="180" fill="none" stroke="#666" stroke-width="2"/>
  
  <!-- Ribcage -->
  <g stroke="#555" stroke-width="1.5" fill="none">
    <!-- Left ribs -->
    <path d="M80 200 Q120 220 140 260 Q120 300 80 320"/>
    <path d="M85 220 Q120 240 135 280 Q120 320 85 340"/>
    <path d="M90 240 Q120 260 130 300 Q120 340 90 360"/>
    <path d="M95 260 Q120 280 125 320 Q120 360 95 380"/>
    
    <!-- Right ribs -->
    <path d="M320 200 Q280 220 260 260 Q280 300 320 320"/>
    <path d="M315 220 Q280 240 265 280 Q280 320 315 340"/>
    <path d="M310 240 Q280 260 270 300 Q280 340 310 360"/>
    <path d="M305 260 Q280 280 275 320 Q280 360 305 380"/>
  </g>
  
  <!-- Lungs -->
  <ellipse cx="150" cy="280" rx="60" ry="100" fill="#333" opacity="0.7"/>
  <ellipse cx="250" cy="280" rx="60" ry="100" fill="#333" opacity="0.7"/>
  
  <!-- Heart shadow -->
  <ellipse cx="180" cy="320" rx="40" ry="60" fill="#222" opacity="0.8"/>
  
  <!-- Spine -->
  <line x1="200" y1="150" x2="200" y2="450" stroke="#444" stroke-width="4"/>
  
  <!-- Clavicles -->
  <path d="M120 180 Q160 170 200 175 Q240 170 280 180" stroke="#666" stroke-width="3" fill="none"/>
  
  <!-- Diaphragm -->
  <path d="M80 380 Q200 350 320 380" stroke="#555" stroke-width="2" fill="none"/>
  
  <!-- Sample annotation for testing -->
  <circle cx="160" cy="250" r="8" fill="none" stroke="#ff4444" stroke-width="2"/>
  <text x="175" y="255" fill="#ff4444" font-family="Arial" font-size="12">Sample finding</text>
  
  <!-- Medical info text -->
  <text x="20" y="30" fill="#ccc" font-family="Arial" font-size="14" font-weight="bold">CHEST X-RAY (PA VIEW)</text>
  <text x="20" y="50" fill="#999" font-family="Arial" font-size="12">Patient: Test Sample</text>
  <text x="20" y="70" fill="#999" font-family="Arial" font-size="12">Date: Sample Image</text>
  <text x="20" y="90" fill="#999" font-family="Arial" font-size="12">For Educational Testing</text>
</svg>